<svg version="1.1" id="Layer_1" xmlns="http://www.w3.org/2000/svg" xmlns:xlink="http://www.w3.org/1999/xlink" x="0px" y="0px"
	 width="100%" viewBox="0 0 496 496" enable-background="new 0 0 496 496" xml:space="preserve">
<path fill="#000000" opacity="1.000000" stroke="none" 
	d="
M334.213989,203.782990 
	C328.955444,181.363998 309.517212,165.676819 286.714905,165.371521 
	C274.055328,165.202026 261.385864,165.102081 248.733047,165.434662 
	C243.811890,165.564026 240.821091,164.164520 239.521667,159.334579 
	C238.804962,156.670517 236.646759,154.450195 236.912994,151.463379 
	C238.661102,150.208618 240.552246,150.699783 242.326263,150.695297 
	C257.486969,150.657013 272.654205,150.397461 287.807159,150.743607 
	C316.042450,151.388596 345.246490,169.644852 350.416351,204.425430 
	C353.920227,227.998001 348.618317,248.843796 330.605682,265.272217 
	C318.629730,276.194916 304.242279,281.866394 287.950989,282.290619 
	C281.624084,282.455414 275.278290,282.115692 268.963348,282.439545 
	C265.008514,282.642426 263.051422,281.219086 261.499115,277.572357 
	C247.673752,245.092606 233.659210,212.693344 219.685715,180.276703 
	C218.380981,177.249893 216.975342,174.266586 215.072113,170.059601 
	C211.189392,178.798782 207.726120,186.449677 204.379822,194.151428 
	C192.238174,222.096283 180.093964,250.040268 168.075073,278.037964 
	C166.683472,281.279694 164.808044,282.781158 161.277893,282.379303 
	C158.032425,282.009918 154.678116,282.869659 151.487503,281.740295 
	C151.000000,279.214600 152.374283,277.387238 153.220337,275.455963 
	C170.792816,235.343536 188.425308,195.257339 205.935715,155.117889 
	C207.324020,151.935455 209.062668,150.202103 212.654312,150.651978 
	C214.130447,150.836884 215.671082,150.844528 217.144485,150.648300 
	C221.052231,150.127823 223.017212,151.747375 224.616058,155.432175 
	C239.728302,190.260559 255.229141,224.921295 270.172333,259.821167 
	C272.824799,266.015991 276.055084,267.844849 282.715393,267.962158 
	C310.165863,268.445557 328.785217,251.536423 334.152893,229.883514 
	C336.274628,221.324600 336.134338,212.761230 334.213989,203.782990 
z"/>
<path fill="#000000" opacity="1.000000" stroke="none" 
	d="
M319.922791,189.964264 
	C320.556366,191.246613 321.709625,192.038193 320.884796,193.753601 
	C314.737030,191.653290 308.751312,188.935760 302.103149,188.190048 
	C288.466705,186.660477 274.814545,187.644638 261.174072,187.392944 
	C251.417892,187.212921 247.952606,184.024704 246.911346,173.662842 
	C247.159637,173.453812 247.411041,173.065857 247.660522,173.067108 
	C264.579620,173.151093 281.614594,170.802078 298.346527,175.009140 
	C307.209442,177.237610 314.346741,182.250244 319.922791,189.964264 
z"/>
<path fill="#000000" opacity="1.000000" stroke="none" 
	d="
M197.212067,269.116211 
	C196.748306,270.234955 196.417297,270.996979 196.103195,271.765869 
	C191.210449,283.743011 190.714661,284.007080 176.016388,281.625061 
	C182.995087,265.578918 189.858643,249.797516 196.722198,234.016098 
	C201.407990,241.833725 207.799881,248.777039 201.931671,258.263184 
	C199.943405,261.477264 198.853256,265.246918 197.212067,269.116211 
z"/>
<path fill="#000000" opacity="1.000000" stroke="none" 
	d="
M136.850662,322.940887 
	C137.108582,317.021393 136.168961,311.486053 138.612915,304.756531 
	C145.782318,310.484009 148.728973,318.988678 155.190704,325.037537 
	C156.499420,318.518158 154.696136,312.185608 156.319244,306.383545 
	C158.699738,306.182526 159.113022,307.300995 159.122635,308.506897 
	C159.175705,315.163300 159.231186,321.822052 159.088089,328.475708 
	C159.059418,329.809113 159.051102,331.665649 157.161606,332.145874 
	C155.390869,332.595917 154.394440,331.337952 153.506531,330.105835 
	C150.587601,326.055237 147.750290,321.944763 144.774582,317.936768 
	C143.740005,316.543274 143.101807,314.656219 140.720871,314.105011 
	C139.639008,319.987335 141.077988,325.991302 139.617966,332.632538 
	C135.555008,329.860413 137.367371,326.287048 136.850662,322.940887 
z"/>
<path fill="#000000" opacity="1.000000" stroke="none" 
	d="
M193.971039,325.360046 
	C193.679077,327.837463 194.408661,330.132080 192.578369,331.885254 
	C190.054672,331.805389 190.187347,329.818115 190.160629,328.301025 
	C190.055145,322.311615 190.143112,316.319153 190.109787,310.328064 
	C190.091202,306.988525 191.607849,305.404449 195.005005,305.723053 
	C195.829666,305.800385 196.668594,305.737335 197.500656,305.722046 
	C201.994766,305.639404 206.365402,305.952423 208.232330,311.019592 
	C210.046432,315.943390 207.635605,319.327850 203.655975,321.862885 
	C203.808472,325.883087 208.012451,327.871124 208.234146,331.624115 
	C205.805557,332.971832 204.633972,331.579224 203.570923,329.986694 
	C202.277328,328.048767 201.175140,325.959869 199.709335,324.165680 
	C197.538879,321.508942 195.396744,320.996979 193.971039,325.360046 
M193.821747,313.126007 
	C193.490540,315.653442 192.937256,318.360535 196.771332,318.555878 
	C199.879028,318.714203 203.387817,319.342346 204.600540,315.267700 
	C205.331146,312.813080 204.591034,310.178223 201.922958,309.704712 
	C199.072067,309.198669 195.131882,307.205811 193.821747,313.126007 
z"/>
<path fill="#000000" opacity="1.000000" stroke="none" 
	d="
M246.635498,309.608093 
	C242.085297,311.916473 240.346344,315.756775 240.642532,320.071747 
	C240.926758,324.212677 243.177597,327.614014 247.441742,329.137054 
	C250.280136,330.150909 253.004669,329.923187 255.577560,328.332489 
	C257.351715,327.235626 257.845764,325.545227 257.609375,323.583954 
	C257.321411,321.194519 255.454773,321.553284 253.820099,321.367462 
	C252.325394,321.197540 250.394608,322.065552 249.417007,319.517670 
	C252.690781,317.796021 256.204834,318.346680 259.408569,318.881744 
	C262.207550,319.349213 261.850433,327.869141 259.045471,330.340332 
	C255.310501,333.630951 248.272858,334.011963 243.526688,331.180420 
	C238.794296,328.357117 236.172531,322.111908 237.359940,316.490936 
	C238.661087,310.331512 242.719177,306.192230 248.280548,305.781433 
	C252.908630,305.439545 257.540100,305.511810 260.439819,311.536316 
	C255.314819,311.780640 251.620087,306.305695 246.635498,309.608093 
z"/>
<path fill="#000000" opacity="1.000000" stroke="none" 
	d="
M275.576538,321.794952 
	C275.589233,317.503937 275.708466,313.681366 275.582428,309.866882 
	C275.482025,306.829315 276.926605,305.917053 279.757141,305.701019 
	C291.541260,304.801575 297.688995,309.856689 297.335999,320.381134 
	C297.129303,326.543732 293.281372,331.139679 287.335602,332.325623 
	C277.585419,334.270386 275.554504,332.533051 275.576538,321.794952 
M289.865112,327.496948 
	C293.599701,324.818054 294.225220,320.992188 293.659668,316.823090 
	C292.994171,311.917450 288.745056,309.048676 283.038605,309.209137 
	C276.953522,309.380310 279.393341,313.941101 278.992035,316.930084 
	C278.706757,319.054535 278.921814,321.249176 278.949493,323.412018 
	C279.032471,329.898102 280.098083,330.693542 286.436951,328.960419 
	C287.390503,328.699738 288.295410,328.260956 289.865112,327.496948 
z"/>
<path fill="#000000" opacity="1.000000" stroke="none" 
	d="
M232.193359,323.915680 
	C233.123749,326.612274 234.469986,328.781342 234.583313,331.529083 
	C231.899719,332.997894 231.103821,331.116791 230.462982,329.182587 
	C229.707230,326.901520 228.588882,325.183258 225.830307,325.967896 
	C222.386368,326.947479 217.589874,323.338104 215.515320,329.046173 
	C214.900665,330.737396 214.226868,332.637756 211.401810,331.827240 
	C210.671967,329.061462 212.524078,326.890411 213.441498,324.548309 
	C215.501907,319.288177 217.681488,314.073761 219.880646,308.869537 
	C220.447617,307.527802 220.984848,305.922180 222.872406,305.961975 
	C224.652374,305.999512 225.446487,307.427155 226.022873,308.791016 
	C228.092712,313.688629 230.052505,318.632751 232.193359,323.915680 
M223.644592,312.825562 
	C219.438492,314.525848 220.333862,318.655945 218.819611,321.928009 
	C221.831558,322.852631 224.314499,323.069336 226.930679,321.928741 
	C226.498901,318.688049 225.166077,316.026764 223.644592,312.825562 
z"/>
<path fill="#000000" opacity="1.000000" stroke="none" 
	d="
M302.496765,331.789673 
	C299.673523,332.292542 299.711090,330.747498 300.330597,329.198486 
	C303.163666,322.114655 305.963348,315.011505 309.060211,308.041992 
	C310.334229,305.174774 312.837250,304.854950 314.190979,307.861450 
	C317.644318,315.530914 320.681671,323.387695 323.847473,331.077271 
	C321.387451,332.916016 320.066589,331.821808 319.623840,330.066620 
	C317.902802,323.243683 312.446991,326.732788 308.583862,325.931366 
	C304.663849,325.118103 304.841888,328.848846 303.442291,330.818237 
	C303.250488,331.088043 303.035706,331.341492 302.496765,331.789673 
M310.797729,322.638763 
	C312.350037,322.434143 314.151428,323.250336 315.677094,321.129700 
	C314.594879,318.259399 314.118713,314.879303 311.733368,311.956299 
	C309.608856,314.472321 309.045532,317.277496 307.969788,319.831116 
	C307.106598,321.880127 308.224091,322.535309 310.797729,322.638763 
z"/>
<path fill="#000000" opacity="1.000000" stroke="none" 
	d="
M112.607574,324.657074 
	C114.877220,319.080322 116.909264,313.813782 119.191910,308.658203 
	C120.714447,305.219421 123.315002,304.957886 124.839539,308.301758 
	C128.259842,315.803741 131.198990,323.525116 134.900055,332.535126 
	C129.082443,331.106049 127.924767,325.545990 122.068077,325.364685 
	C115.747116,325.169037 115.187576,330.717987 111.128700,332.594025 
	C109.845207,329.256927 111.921440,327.287811 112.607574,324.657074 
M119.439949,322.311279 
	C121.669708,322.668091 123.907196,323.108734 126.279129,321.833832 
	C125.189087,318.341583 124.521523,314.921967 121.529945,311.397491 
	C120.920021,315.591400 117.736153,318.066833 119.439949,322.311279 
z"/>
<path fill="#000000" opacity="1.000000" stroke="none" 
	d="
M378.428650,306.321289 
	C380.038177,305.800720 381.260925,306.171967 381.804108,307.267059 
	C385.688995,315.099213 388.861572,323.213165 391.978912,332.406769 
	C386.361053,331.636658 386.319824,324.778961 379.625549,325.316010 
	C373.765656,325.786133 372.731995,330.712402 368.261810,331.873535 
	C370.647614,322.920074 373.847198,314.519836 378.428650,306.321289 
M379.617920,312.326294 
	C377.312714,315.041534 376.401642,318.308258 375.556396,321.881561 
	C378.358154,322.928680 380.812378,323.070190 383.545197,321.822113 
	C383.016327,318.344452 382.056824,315.251801 379.617920,312.326294 
z"/>
<path fill="#000000" opacity="1.000000" stroke="none" 
	d="
M185.318481,312.163147 
	C185.303665,316.134430 185.455826,319.641754 185.236237,323.125610 
	C184.851089,329.236328 181.232605,332.866760 175.546188,333.167969 
	C169.647903,333.480408 165.704361,330.554169 164.418839,324.702606 
	C163.262711,319.439972 163.972092,314.088409 163.955399,308.775452 
	C163.951706,307.600769 164.338486,306.447845 166.002396,306.322571 
	C168.020721,307.444305 167.225388,309.483765 167.292191,311.158386 
	C167.444778,314.982483 167.099060,318.848663 167.525925,322.633453 
	C167.978958,326.650269 170.260330,329.479218 174.688843,329.555695 
	C178.760361,329.626007 181.474762,326.670319 181.647369,322.025238 
	C181.789490,318.200378 181.638046,314.365417 181.726501,310.537476 
	C181.762482,308.980347 181.236526,307.097565 183.535965,306.188782 
	C186.200653,307.294983 184.988251,309.772461 185.318481,312.163147 
z"/>
<path fill="#000000" opacity="1.000000" stroke="none" 
	d="
M336.325867,323.925232 
	C336.108521,326.846649 336.872223,329.396393 335.522125,331.770325 
	C332.544922,331.917389 332.984467,329.640045 332.931915,327.998016 
	C332.804108,324.006195 332.744324,320.002411 332.908569,316.013824 
	C333.074341,311.987762 332.992371,308.457336 327.382385,309.088531 
	C326.361572,309.203400 325.452850,308.621490 325.241028,307.419434 
	C328.784576,304.904388 341.345123,304.993011 344.693512,307.716156 
	C344.201569,308.153870 343.695862,308.962311 343.284576,308.916779 
	C335.355927,308.040009 336.106720,313.411438 336.315674,318.445801 
	C336.384674,320.107819 336.325928,321.775116 336.325867,323.925232 
z"/>
<path fill="#000000" opacity="1.000000" stroke="none" 
	d="
M358.315796,315.233551 
	C358.065887,320.836426 358.899475,326.011688 357.769623,331.108276 
	C357.691193,331.462036 357.055328,331.692230 356.700928,331.962921 
	C354.258636,331.369568 354.843903,329.405151 354.782257,327.886292 
	C354.667511,325.058411 354.774323,322.222260 354.747040,319.389954 
	C354.698608,314.361816 356.496613,308.148773 347.859100,308.513977 
	C347.621948,308.524017 347.352325,307.766876 346.641357,306.651123 
	C353.378357,305.164520 359.592194,305.426758 367.055481,306.635712 
	C363.961670,310.338104 356.352722,307.827301 358.315796,315.233551 
z"/>
</svg>